<?xml version="1.0" encoding="UTF-8"?>
<svg id="Layer_2" data-name="Layer 2" xmlns="http://www.w3.org/2000/svg" viewBox="0 0 199.75 121.25">
  <defs>
    <style>
      .cls-1 {
        fill: #231f20;
      }
    </style>
  </defs>
  <g id="Layer_1-2" data-name="Layer 1">
    <g>
      <path class="cls-1" d="M8.3,14.55H0V6.25h8.3l41.65,41.7v8.3L8.3,14.55ZM29.15,27.05l2.15-2.15-1.85-1.85h-2.8v-2.8l-.5-.5h-2.85v-2.85l-2.35-2.35h-4.35l2.2-2.2-6.15-6.1h1l5.65,5.6,5.6-5.6h8.3v8.3h-11.25l1.9,1.9h2.8v2.8l.5.5h2.85v2.85l1.8,1.8,5.65-5.65v8.3h-3l16.7,16.7h-1l-16.7-16.7h-4.3Z"/>
      <path class="cls-1" d="M45.4,22.8v-8.25l12.55,12.5h4.3l-4-4h-2.8v-2.8l-.5-.5h-2.85v-2.85l-2.35-2.35h-4.35l2.2-2.2-6.15-6.1h1l5.65,5.6,5.6-5.6h8.3l29.25,29.2h4.25v8.3h-8.3v-4l-9.4-9.4h-11.25l5.1,5.1h7.3v7.3l1,1h-17.6v-4l-16.95-16.95ZM62,14.55h-11.25l1.9,1.9h2.8v2.8l.5.5h2.85v2.85l4.45,4.45h11.25l-12.5-12.5ZM70.65,35.45l-5.1-5.1h-4.3l5.15,5.1h4.25Z"/>
      <path class="cls-1" d="M106.65,27.05l2.15-2.15-1.85-1.85h-2.8v-2.8l-.5-.5h-2.85v-2.85l-2.35-2.35h-4.35l2.2-2.2-6.15-6.1h1l5.65,5.6,5.6-5.6h8.3l4.25,4.25v8.25l-4.25-4.2h-11.25l1.9,1.9h2.8v2.8l.5.5h2.85v2.85l1.8,1.8,5.65-5.65h8.25l16.75,16.7h8.3v8.3h-8.3l-16.7-16.7h-11.3l8.4,8.4h9.3v8.3h-18.6v-3.95l-25.25-25.25h-8.3V6.25h8.3l29.2,29.2h4.35l-8.4-8.4h-4.3Z"/>
      <path class="cls-1" d="M175.55,43.75l-1.5-1.5c-1.33.63-2.77,1.12-4.33,1.48-1.55.35-3.14.52-4.77.52-2.63,0-5.12-.48-7.48-1.45-2.35-.97-4.38-2.31-6.1-4.02-1.72-1.72-3.08-3.76-4.1-6.12-1.02-2.37-1.53-4.93-1.53-7.7,0-1.63.18-3.2.55-4.7.37-1.5.88-2.9,1.55-4.2l-9.8-9.8h1l9.15,9.15c.73-1.33,1.62-2.55,2.67-3.65s2.19-2.07,3.42-2.9c-.93,1.7-1.7,3.24-2.3,4.62-.6,1.38-1.02,2.88-1.25,4.48l2.2,2.2h2.75v2.75l.55.55h2.8v2.8l.5.5h2.85v2.85l5.95,5.95c2.07-.53,3.76-1.56,5.08-3.07,1.32-1.52,2.08-3.33,2.28-5.43h8.25c0,3.27-.85,6.2-2.55,8.8-1.7,2.6-3.93,4.62-6.7,6.05l1.85,1.85h-1ZM150.5,21.45c0,2.13.33,4.09.97,5.88.65,1.78,1.59,3.32,2.83,4.6,1.23,1.28,2.75,2.28,4.55,3,1.8.72,3.83,1.08,6.1,1.08.43,0,.88-.02,1.33-.08.45-.05.88-.11,1.27-.17l-5.7-5.7h-2.8v-2.8l-.5-.5h-2.85v-2.85l-.45-.45h-2.9v-2.9l-1.7-1.7c-.03.4-.07.82-.1,1.25-.03.43-.05.88-.05,1.35ZM168.35,31.2l-14.05-14.05v-8.3l14.05,14.05v8.3ZM160,6.25h8.35v8.3h-8.35V6.25ZM168.35,14.55h8.35l-8.35,8.35v-8.35Z"/>
      <path class="cls-1" d="M37.5,95.45h4.35l-9.1-9.1h-2.75v-2.75l-.55-.55h-2.8v-2.8l-.5-.5h-2.85v-2.85l-10.65-10.65h1l10.2,10.2h2.8v2.8l.5.5h2.85v2.85l.45.45h2.9v2.9l9.5,9.5h5.25v5.25l3.05,3.05h-1l-2.05-2.05v2.05h-10.6l-29.2-29.2H0v-8.3h8.3l29.2,29.2ZM27.2,74.55v-8.3l29.25,29.2h8.3v8.3h-8.3l-29.25-29.2ZM35.55,74.55v-8.3h8.3l20.9,20.8v8.4l-20.9-20.9h-8.3Z"/>
      <path class="cls-1" d="M97.7,103.75l-1.5-1.5c-1.33.63-2.77,1.12-4.32,1.48-1.55.35-3.14.52-4.77.52-2.63,0-5.12-.48-7.48-1.45-2.35-.97-4.38-2.31-6.1-4.02-1.72-1.72-3.08-3.76-4.1-6.12-1.02-2.37-1.52-4.93-1.52-7.7,0-1.63.18-3.2.55-4.7.37-1.5.88-2.9,1.55-4.2l-9.8-9.8h1l9.15,9.15c.73-1.33,1.62-2.55,2.67-3.65s2.19-2.07,3.42-2.9c-.93,1.7-1.7,3.24-2.3,4.62-.6,1.38-1.02,2.88-1.25,4.48l2.2,2.2h2.75v2.75l.55.55h2.8v2.8l.5.5h2.85v2.85l5.95,5.95c2.07-.53,3.76-1.56,5.07-3.07,1.32-1.52,2.08-3.33,2.28-5.43h8.25c0,3.27-.85,6.2-2.55,8.8-1.7,2.6-3.93,4.62-6.7,6.05l1.85,1.85h-1ZM72.65,81.45c0,2.13.33,4.09.98,5.88s1.59,3.32,2.82,4.6c1.23,1.28,2.75,2.28,4.55,3,1.8.72,3.83,1.08,6.1,1.08.43,0,.88-.02,1.32-.08.45-.05.88-.11,1.27-.17l-5.7-5.7h-2.8v-2.8l-.5-.5h-2.85v-2.85l-.45-.45h-2.9v-2.9l-1.7-1.7c-.03.4-.07.82-.1,1.25-.03.43-.05.88-.05,1.35ZM90.5,91.2l-14.05-14.05v-8.3l14.05,14.05v8.3ZM82.15,66.25h8.35v8.3h-8.35v-8.3ZM90.5,74.55h8.35l-8.35,8.35v-8.35Z"/>
      <path class="cls-1" d="M141.7,95.45h18.6v8.3h-27.9v-3.95l-25.25-25.25h-8.3v-8.3h8.3l29.2,29.2h4.35l-12.4-12.4h-2.8v-2.8l-.5-.5h-2.85v-2.85l-.45-.45h-2.9v-2.9l-7.3-7.3h1l6.9,6.9h2.75v2.75l.55.55h2.8v2.8l.5.5h2.85v2.85l12.85,12.85Z"/>
      <path class="cls-1" d="M181.15,95.45h18.6v8.3h-27.9v-3.95l-25.25-25.25h-8.3v-8.3h8.3l29.2,29.2h4.35l-12.4-12.4h-2.8v-2.8l-.5-.5h-2.85v-2.85l-.45-.45h-2.9v-2.9l-7.3-7.3h1l6.9,6.9h2.75v2.75l.55.55h2.8v2.8l.5.5h2.85v2.85l12.85,12.85Z"/>
    </g>
  </g>
</svg>